<?xml version="1.0" encoding="UTF-8"?>
<svg id="Layer_1" xmlns="http://www.w3.org/2000/svg" version="1.1" xmlns:xlink="http://www.w3.org/1999/xlink" viewBox="0 0 1200 1200">
  <!-- Generator: Adobe Illustrator 29.7.1, SVG Export Plug-In . SVG Version: 2.1.1 Build 8)  -->
  <defs>
    <style>
      .st0 {
        fill: #fff;
      }

      .st1 {
        fill: url(#linear-gradient1);
      }

      .st2 {
        fill: none;
        stroke: #fff;
        stroke-linecap: round;
        stroke-miterlimit: 10;
        stroke-width: 9px;
      }

      .st3 {
        fill: url(#linear-gradient);
        fill-rule: evenodd;
      }
    </style>
    <linearGradient id="linear-gradient" x1="52.53" y1="549.04" x2="1147.47" y2="356.16" gradientTransform="translate(0 1052.6) scale(1 -1)" gradientUnits="userSpaceOnUse">
      <stop offset="0" stop-color="#13264d"/>
      <stop offset="1" stop-color="#009cde"/>
    </linearGradient>
    <linearGradient id="linear-gradient1" x1="241.57" y1="541.14" x2="959.1" y2="955.4" gradientTransform="translate(0 -148)" gradientUnits="userSpaceOnUse">
      <stop offset="0" stop-color="#0a1a38"/>
      <stop offset="1" stop-color="#03ade8"/>
    </linearGradient>
  </defs>
  <path class="st3" d="M600,60C168,60,60,168,60,600s108,540,540,540,540-108,540-540S1032,60,600,60Z"/>
  <g id="Logos12">
    <path id="Icon_white12" class="st1" d="M1061.4,585.2c-294,1.6-418.9-169.3-446.4-334.6-2.8-16.6-27-16.5-30.4,0l-.2,1c-28.2,164.5-152.9,333.9-444.9,332.8h-1c-18.5,2-18.6,30.6,0,30.5,294-1.6,418.9,169.3,446.4,334.6,2.8,16.6,27,16.5,30.4,0l.2-1c28.2-164.7,153.3-334.4,446.1-332.7,18.6,0,18.5-28.5,0-30.5"/>
  </g>
  <path class="st0" d="M600,852.97c-135.67,0-245.76-110.11-245.76-245.76s106.38-241.88,238.82-245.58c2.28-.22,4.63-.18,6.95-.18s4.67-.04,6.95.18c132.44,3.7,238.82,112.25,238.82,245.58s-110.11,245.76-245.76,245.76h-.02ZM594.15,840.9v-116.66h-95.27c5.36,18.41,11.83,35.35,19.38,50.1,20.33,39.7,47.18,63.7,75.89,66.56h0ZM605.85,840.9c28.7-2.86,55.56-26.87,75.89-66.56,7.56-14.75,14.02-31.69,19.38-50.1h-95.27v116.66h0ZM553.37,836.69c-17.56-12.8-32.97-32.52-45.53-57.05-8.39-16.38-15.5-35.09-21.21-55.41h-89.24c33.01,56.99,89.32,99,155.98,112.46h0ZM646.62,836.69c66.66-13.46,122.97-55.47,155.98-112.46h-89.24c-5.71,20.32-12.82,39.02-21.21,55.41-12.57,24.53-27.97,44.25-45.53,57.05h0ZM390.99,712.53h92.53c-7.46-30.32-11.82-63.93-12.25-99.48h-105.14c.89,35.72,9.72,69.46,24.87,99.48h-.01ZM495.58,712.53h98.56v-99.48h-111.18c.45,35.71,4.98,69.44,12.62,99.48h0ZM605.85,712.53h98.56c7.63-30.04,12.17-63.76,12.62-99.48h-111.18v99.48ZM716.48,712.53h92.53c15.15-30.01,23.98-63.75,24.87-99.48h-105.14c-.43,35.55-4.79,69.15-12.25,99.48h-.01ZM366.12,601.35h105.14c.42-35.51,4.81-69.22,12.25-99.48h-92.71c-15.1,29.98-23.81,63.81-24.69,99.48h0ZM482.97,601.35h111.18v-99.48h-98.56c-7.64,30.02-12.17,63.73-12.62,99.48h0ZM605.86,601.35h111.18c-.44-35.74-4.98-69.46-12.62-99.48h-98.56v99.48ZM728.74,601.35h105.14c-.87-35.67-9.58-69.5-24.68-99.48h-92.71c7.44,30.26,11.83,63.96,12.25,99.48h0ZM397.21,490.17h89.42c5.71-20.29,12.82-38.84,21.21-55.22,12.56-24.53,27.98-44.38,45.53-57.24-66.74,13.47-123.17,55.36-156.16,112.46h0ZM498.88,490.17h95.27v-116.85c-28.7,2.88-55.56,27.23-75.89,66.93-7.55,14.75-14.02,31.54-19.38,49.92h0ZM605.86,490.17h95.27c-5.36-18.39-11.83-35.17-19.38-49.92-20.33-39.7-47.18-64.05-75.88-66.93v116.85h-.01ZM713.38,490.17h89.42c-33-57.1-89.42-98.99-156.16-112.46,17.56,12.86,32.97,32.71,45.53,57.24,8.39,16.38,15.5,34.94,21.21,55.22h0Z"/>
  <path class="st2" d="M879.37,730.1c-67.88,155.42-248.89,226.38-404.31,158.51-155.42-67.88-226.38-248.89-158.51-404.31,67.88-155.42,248.89-226.38,404.31-158.51"/>
  <polyline class="st2" points="687.4 345.25 730.09 331.07 716.94 291.49"/>
</svg>